<svg xmlns="http://www.w3.org/2000/svg" version="1.1" xmlns:xlink="http://www.w3.org/1999/xlink" xmlns:svgjs="http://svgjs.com/svgjs" width="2000" height="860" preserveAspectRatio="none" viewBox="0 0 2000 860"><g mask="url(&quot;#SvgjsMask1603&quot;)" fill="none"><g mask="url(&quot;#SvgjsMask1605&quot;)"><path d="M1437.5 425.5L1414.5 448.5L1391.5 448.5L1368.5 448.5L1345.5 448.5M1575.5 448.5L1552.5 471.5L1529.5 471.5M1736.5 425.5L1713.5 448.5L1690.5 448.5M1690.5 425.5L1667.5 402.5M1506.5 425.5L1483.5 402.5L1460.5 402.5M1759.5 425.5L1736.5 448.5M1621.5 425.5L1598.5 402.5L1575.5 402.5L1552.5 402.5L1529.5 402.5L1506.5 402.5M2012.5 425.5L1989.5 425.5L1966.5 425.5L1943.5 425.5L1920.5 425.5L1897.5 425.5L1874.5 425.5L1851.5 425.5L1828.5 425.5L1805.5 425.5L1782.5 425.5L1759.5 425.5L1736.5 425.5L1713.5 425.5L1690.5 425.5L1667.5 425.5L1644.5 425.5L1621.5 425.5L1598.5 425.5L1575.5 448.5L1552.5 448.5L1529.5 425.5L1506.5 425.5L1483.5 425.5L1460.5 425.5L1437.5 425.5L1414.5 425.5L1391.5 425.5L1368.5 425.5L1345.5 425.5" stroke="url(#SvgjsLinearGradient1604)" stroke-width="3.83"></path><path d="M1339.75 425.5 a5.75 5.75 0 1 0 11.5 0 a5.75 5.75 0 1 0 -11.5 0zM1339.75 448.5 a5.75 5.75 0 1 0 11.5 0 a5.75 5.75 0 1 0 -11.5 0zM1523.75 471.5 a5.75 5.75 0 1 0 11.5 0 a5.75 5.75 0 1 0 -11.5 0zM1684.75 448.5 a5.75 5.75 0 1 0 11.5 0 a5.75 5.75 0 1 0 -11.5 0zM1661.75 402.5 a5.75 5.75 0 1 0 11.5 0 a5.75 5.75 0 1 0 -11.5 0zM1454.75 402.5 a5.75 5.75 0 1 0 11.5 0 a5.75 5.75 0 1 0 -11.5 0zM1730.75 448.5 a5.75 5.75 0 1 0 11.5 0 a5.75 5.75 0 1 0 -11.5 0zM1500.75 402.5 a5.75 5.75 0 1 0 11.5 0 a5.75 5.75 0 1 0 -11.5 0z" fill="url(#SvgjsLinearGradient1604)"></path><path d="M1667.5 471.5L1644.5 494.5L1621.5 494.5M1828.5 448.5L1805.5 471.5M1805.5 448.5L1782.5 448.5L1759.5 448.5M2012.5 448.5L1989.5 448.5L1966.5 448.5L1943.5 448.5L1920.5 448.5L1897.5 448.5L1874.5 448.5L1851.5 448.5L1828.5 448.5L1805.5 448.5L1782.5 471.5L1759.5 471.5L1736.5 471.5L1713.5 471.5L1690.5 471.5L1667.5 471.5L1644.5 471.5L1621.5 471.5" stroke="url(#SvgjsLinearGradient1604)" stroke-width="3.83"></path><path d="M1615.75 471.5 a5.75 5.75 0 1 0 11.5 0 a5.75 5.75 0 1 0 -11.5 0zM1615.75 494.5 a5.75 5.75 0 1 0 11.5 0 a5.75 5.75 0 1 0 -11.5 0zM1799.75 471.5 a5.75 5.75 0 1 0 11.5 0 a5.75 5.75 0 1 0 -11.5 0zM1753.75 448.5 a5.75 5.75 0 1 0 11.5 0 a5.75 5.75 0 1 0 -11.5 0z" fill="url(#SvgjsLinearGradient1604)"></path><path d="M1598.5 379.5L1575.5 356.5L1552.5 356.5M1506.5 379.5L1483.5 356.5L1460.5 356.5L1437.5 356.5M1667.5 356.5L1644.5 333.5L1621.5 333.5L1598.5 333.5L1575.5 333.5L1552.5 333.5L1529.5 333.5L1506.5 333.5M1897.5 402.5L1874.5 379.5L1851.5 379.5L1828.5 379.5M1644.5 356.5L1621.5 379.5M1713.5 379.5L1690.5 379.5L1667.5 379.5L1644.5 379.5L1621.5 402.5M2012.5 402.5L1989.5 402.5L1966.5 402.5L1943.5 402.5L1920.5 402.5L1897.5 402.5L1874.5 402.5L1851.5 402.5L1828.5 402.5L1805.5 402.5L1782.5 402.5L1759.5 402.5L1736.5 402.5L1713.5 379.5L1690.5 356.5L1667.5 356.5L1644.5 356.5L1621.5 356.5L1598.5 379.5L1575.5 379.5L1552.5 379.5L1529.5 379.5L1506.5 379.5L1483.5 379.5L1460.5 379.5L1437.5 379.5" stroke="url(#SvgjsLinearGradient1604)" stroke-width="3.83"></path><path d="M1431.75 379.5 a5.75 5.75 0 1 0 11.5 0 a5.75 5.75 0 1 0 -11.5 0zM1546.75 356.5 a5.75 5.75 0 1 0 11.5 0 a5.75 5.75 0 1 0 -11.5 0zM1431.75 356.5 a5.75 5.75 0 1 0 11.5 0 a5.75 5.75 0 1 0 -11.5 0zM1500.75 333.5 a5.75 5.75 0 1 0 11.5 0 a5.75 5.75 0 1 0 -11.5 0zM1822.75 379.5 a5.75 5.75 0 1 0 11.5 0 a5.75 5.75 0 1 0 -11.5 0zM1615.75 379.5 a5.75 5.75 0 1 0 11.5 0 a5.75 5.75 0 1 0 -11.5 0zM1615.75 402.5 a5.75 5.75 0 1 0 11.5 0 a5.75 5.75 0 1 0 -11.5 0z" fill="url(#SvgjsLinearGradient1604)"></path><path d="M1529.5 517.5L1506.5 494.5L1483.5 494.5L1460.5 494.5M1805.5 494.5L1782.5 517.5L1759.5 517.5L1736.5 517.5L1713.5 517.5L1690.5 517.5L1667.5 540.5L1644.5 540.5L1621.5 540.5L1598.5 540.5M1828.5 494.5L1805.5 517.5L1782.5 540.5L1759.5 540.5L1736.5 540.5L1713.5 540.5M1552.5 517.5L1529.5 494.5M1460.5 517.5L1437.5 540.5L1414.5 540.5M1874.5 471.5L1851.5 494.5M1575.5 517.5L1552.5 494.5M2012.5 471.5L1989.5 471.5L1966.5 471.5L1943.5 471.5L1920.5 471.5L1897.5 471.5L1874.5 471.5L1851.5 471.5L1828.5 494.5L1805.5 494.5L1782.5 494.5L1759.5 494.5L1736.5 494.5L1713.5 494.5L1690.5 494.5L1667.5 517.5L1644.5 517.5L1621.5 517.5L1598.5 517.5L1575.5 517.5L1552.5 517.5L1529.5 517.5L1506.5 517.5L1483.5 517.5L1460.5 517.5L1437.5 517.5L1414.5 517.5L1391.5 517.5L1368.5 517.5" stroke="url(#SvgjsLinearGradient1604)" stroke-width="3.83"></path><path d="M1362.75 517.5 a5.75 5.75 0 1 0 11.5 0 a5.75 5.75 0 1 0 -11.5 0zM1454.75 494.5 a5.75 5.75 0 1 0 11.5 0 a5.75 5.75 0 1 0 -11.5 0zM1592.75 540.5 a5.75 5.75 0 1 0 11.5 0 a5.75 5.75 0 1 0 -11.5 0zM1707.75 540.5 a5.75 5.75 0 1 0 11.5 0 a5.75 5.75 0 1 0 -11.5 0zM1523.75 494.5 a5.75 5.75 0 1 0 11.5 0 a5.75 5.75 0 1 0 -11.5 0zM1408.75 540.5 a5.75 5.75 0 1 0 11.5 0 a5.75 5.75 0 1 0 -11.5 0zM1845.75 494.5 a5.75 5.75 0 1 0 11.5 0 a5.75 5.75 0 1 0 -11.5 0zM1546.75 494.5 a5.75 5.75 0 1 0 11.5 0 a5.75 5.75 0 1 0 -11.5 0z" fill="url(#SvgjsLinearGradient1604)"></path><path d="M2012.5 379.5L1989.5 379.5L1966.5 379.5" stroke="url(#SvgjsLinearGradient1604)" stroke-width="3.83"></path><path d="M1960.75 379.5 a5.75 5.75 0 1 0 11.5 0 a5.75 5.75 0 1 0 -11.5 0z" fill="url(#SvgjsLinearGradient1604)"></path><path d="M1966.5 494.5L1943.5 517.5L1920.5 517.5M1897.5 494.5L1874.5 494.5M1989.5 494.5L1966.5 517.5M2012.5 494.5L1989.5 494.5L1966.5 494.5L1943.5 494.5L1920.5 494.5L1897.5 494.5L1874.5 517.5L1851.5 517.5" stroke="url(#SvgjsLinearGradient1604)" stroke-width="3.83"></path><path d="M1845.75 517.5 a5.75 5.75 0 1 0 11.5 0 a5.75 5.75 0 1 0 -11.5 0zM1914.75 517.5 a5.75 5.75 0 1 0 11.5 0 a5.75 5.75 0 1 0 -11.5 0zM1868.75 494.5 a5.75 5.75 0 1 0 11.5 0 a5.75 5.75 0 1 0 -11.5 0zM1960.75 517.5 a5.75 5.75 0 1 0 11.5 0 a5.75 5.75 0 1 0 -11.5 0z" fill="url(#SvgjsLinearGradient1604)"></path><path d="M1897.5 356.5L1874.5 333.5M1759.5 379.5L1736.5 356.5L1713.5 356.5M1943.5 356.5L1920.5 379.5L1897.5 379.5M2012.5 356.5L1989.5 356.5L1966.5 356.5L1943.5 356.5L1920.5 356.5L1897.5 356.5L1874.5 356.5L1851.5 356.5L1828.5 356.5L1805.5 379.5L1782.5 379.5L1759.5 379.5L1736.5 379.5" stroke="url(#SvgjsLinearGradient1604)" stroke-width="3.83"></path><path d="M1730.75 379.5 a5.75 5.75 0 1 0 11.5 0 a5.75 5.75 0 1 0 -11.5 0zM1868.75 333.5 a5.75 5.75 0 1 0 11.5 0 a5.75 5.75 0 1 0 -11.5 0zM1707.75 356.5 a5.75 5.75 0 1 0 11.5 0 a5.75 5.75 0 1 0 -11.5 0zM1891.75 379.5 a5.75 5.75 0 1 0 11.5 0 a5.75 5.75 0 1 0 -11.5 0z" fill="url(#SvgjsLinearGradient1604)"></path><path d="M2012.5 333.5L1989.5 333.5L1966.5 333.5L1943.5 333.5" stroke="url(#SvgjsLinearGradient1604)" stroke-width="3.83"></path><path d="M1937.75 333.5 a5.75 5.75 0 1 0 11.5 0 a5.75 5.75 0 1 0 -11.5 0z" fill="url(#SvgjsLinearGradient1604)"></path><path d="M2012.5 540.5L1989.5 540.5L1966.5 540.5L1943.5 540.5L1920.5 540.5L1897.5 540.5L1874.5 540.5L1851.5 540.5" stroke="url(#SvgjsLinearGradient1604)" stroke-width="3.83"></path><path d="M1845.75 540.5 a5.75 5.75 0 1 0 11.5 0 a5.75 5.75 0 1 0 -11.5 0z" fill="url(#SvgjsLinearGradient1604)"></path><path d="M1437.5 287.5L1414.5 264.5L1391.5 264.5L1368.5 264.5L1345.5 264.5M1943.5 310.5L1920.5 287.5M1506.5 287.5L1483.5 310.5M1690.5 287.5L1667.5 310.5L1644.5 310.5L1621.5 310.5M1644.5 287.5L1621.5 264.5L1598.5 264.5M1759.5 287.5L1736.5 264.5L1713.5 264.5L1690.5 264.5L1667.5 264.5M1851.5 310.5L1828.5 333.5L1805.5 333.5L1782.5 333.5L1759.5 310.5L1736.5 310.5L1713.5 310.5L1690.5 310.5L1667.5 333.5M2012.5 310.5L1989.5 310.5L1966.5 310.5L1943.5 310.5L1920.5 310.5L1897.5 310.5L1874.5 310.5L1851.5 310.5L1828.5 310.5L1805.5 287.5L1782.5 287.5L1759.5 287.5L1736.5 287.5L1713.5 287.5L1690.5 287.5L1667.5 287.5L1644.5 287.5L1621.5 287.5L1598.5 287.5L1575.5 287.5L1552.5 287.5L1529.5 287.5L1506.5 287.5L1483.5 287.5L1460.5 287.5L1437.5 287.5L1414.5 287.5L1391.5 287.5" stroke="url(#SvgjsLinearGradient1604)" stroke-width="3.83"></path><path d="M1385.75 287.5 a5.75 5.75 0 1 0 11.5 0 a5.75 5.75 0 1 0 -11.5 0zM1339.75 264.5 a5.75 5.75 0 1 0 11.5 0 a5.75 5.75 0 1 0 -11.5 0zM1914.75 287.5 a5.75 5.75 0 1 0 11.5 0 a5.75 5.75 0 1 0 -11.5 0zM1477.75 310.5 a5.75 5.75 0 1 0 11.5 0 a5.75 5.75 0 1 0 -11.5 0zM1615.75 310.5 a5.75 5.75 0 1 0 11.5 0 a5.75 5.75 0 1 0 -11.5 0zM1592.75 264.5 a5.75 5.75 0 1 0 11.5 0 a5.75 5.75 0 1 0 -11.5 0zM1661.75 264.5 a5.75 5.75 0 1 0 11.5 0 a5.75 5.75 0 1 0 -11.5 0zM1661.75 333.5 a5.75 5.75 0 1 0 11.5 0 a5.75 5.75 0 1 0 -11.5 0z" fill="url(#SvgjsLinearGradient1604)"></path><path d="M1759.5 563.5L1736.5 586.5M1805.5 563.5L1782.5 586.5L1759.5 586.5L1736.5 609.5L1713.5 609.5L1690.5 609.5L1667.5 609.5M1828.5 563.5L1805.5 586.5M1713.5 563.5L1690.5 586.5M1851.5 563.5L1828.5 586.5L1805.5 609.5M2012.5 563.5L1989.5 563.5L1966.5 563.5L1943.5 563.5L1920.5 563.5L1897.5 563.5L1874.5 563.5L1851.5 563.5L1828.5 563.5L1805.5 563.5L1782.5 563.5L1759.5 563.5L1736.5 563.5L1713.5 563.5L1690.5 563.5L1667.5 563.5L1644.5 563.5L1621.5 563.5L1598.5 563.5L1575.5 563.5L1552.5 563.5L1529.5 563.5L1506.5 563.5" stroke="url(#SvgjsLinearGradient1604)" stroke-width="3.83"></path><path d="M1500.75 563.5 a5.75 5.75 0 1 0 11.5 0 a5.75 5.75 0 1 0 -11.5 0zM1730.75 586.5 a5.75 5.75 0 1 0 11.5 0 a5.75 5.75 0 1 0 -11.5 0zM1661.75 609.5 a5.75 5.75 0 1 0 11.5 0 a5.75 5.75 0 1 0 -11.5 0zM1799.75 586.5 a5.75 5.75 0 1 0 11.5 0 a5.75 5.75 0 1 0 -11.5 0zM1684.75 586.5 a5.75 5.75 0 1 0 11.5 0 a5.75 5.75 0 1 0 -11.5 0zM1799.75 609.5 a5.75 5.75 0 1 0 11.5 0 a5.75 5.75 0 1 0 -11.5 0z" fill="url(#SvgjsLinearGradient1604)"></path><path d="M1736.5 218.5L1713.5 241.5L1690.5 241.5L1667.5 241.5L1644.5 241.5L1621.5 241.5M1828.5 218.5L1805.5 241.5L1782.5 241.5L1759.5 241.5M1874.5 241.5L1851.5 241.5L1828.5 241.5M1621.5 218.5L1598.5 195.5L1575.5 195.5L1552.5 195.5L1529.5 218.5M1966.5 241.5L1943.5 264.5L1920.5 264.5L1897.5 264.5L1874.5 264.5M2012.5 287.5L1989.5 264.5L1966.5 241.5L1943.5 241.5L1920.5 241.5L1897.5 241.5L1874.5 241.5L1851.5 218.5L1828.5 218.5L1805.5 218.5L1782.5 218.5L1759.5 218.5L1736.5 218.5L1713.5 218.5L1690.5 218.5L1667.5 218.5L1644.5 218.5L1621.5 218.5L1598.5 218.5L1575.5 218.5" stroke="url(#SvgjsLinearGradient1604)" stroke-width="3.83"></path><path d="M1569.75 218.5 a5.75 5.75 0 1 0 11.5 0 a5.75 5.75 0 1 0 -11.5 0zM1615.75 241.5 a5.75 5.75 0 1 0 11.5 0 a5.75 5.75 0 1 0 -11.5 0zM1753.75 241.5 a5.75 5.75 0 1 0 11.5 0 a5.75 5.75 0 1 0 -11.5 0zM1822.75 241.5 a5.75 5.75 0 1 0 11.5 0 a5.75 5.75 0 1 0 -11.5 0zM1523.75 218.5 a5.75 5.75 0 1 0 11.5 0 a5.75 5.75 0 1 0 -11.5 0zM1868.75 264.5 a5.75 5.75 0 1 0 11.5 0 a5.75 5.75 0 1 0 -11.5 0z" fill="url(#SvgjsLinearGradient1604)"></path><path d="M2012.5 586.5L1989.5 609.5" stroke="url(#SvgjsLinearGradient1604)" stroke-width="3.83"></path><path d="M1983.75 609.5 a5.75 5.75 0 1 0 11.5 0 a5.75 5.75 0 1 0 -11.5 0z" fill="url(#SvgjsLinearGradient1604)"></path><path d="M1690.5 195.5L1667.5 172.5M1368.5 172.5L1345.5 149.5L1322.5 149.5M1414.5 172.5L1391.5 149.5M1644.5 172.5L1621.5 195.5M1483.5 172.5L1460.5 195.5L1437.5 218.5L1414.5 218.5M1391.5 172.5L1368.5 195.5L1345.5 195.5L1322.5 195.5M1552.5 172.5L1529.5 172.5M2012.5 241.5L1989.5 241.5L1966.5 218.5L1943.5 218.5L1920.5 218.5L1897.5 218.5L1874.5 218.5L1851.5 195.5L1828.5 195.5L1805.5 195.5L1782.5 195.5L1759.5 195.5L1736.5 195.5L1713.5 195.5L1690.5 195.5L1667.5 195.5L1644.5 172.5L1621.5 172.5L1598.5 172.5L1575.5 172.5L1552.5 172.5L1529.5 195.5L1506.5 195.5L1483.5 172.5L1460.5 172.5L1437.5 172.5L1414.5 172.5L1391.5 172.5L1368.5 172.5L1345.5 172.5" stroke="url(#SvgjsLinearGradient1604)" stroke-width="3.83"></path><path d="M1339.75 172.5 a5.75 5.75 0 1 0 11.5 0 a5.75 5.75 0 1 0 -11.5 0zM1661.75 172.5 a5.75 5.75 0 1 0 11.5 0 a5.75 5.75 0 1 0 -11.5 0zM1316.75 149.5 a5.75 5.75 0 1 0 11.5 0 a5.75 5.75 0 1 0 -11.5 0zM1385.75 149.5 a5.75 5.75 0 1 0 11.5 0 a5.75 5.75 0 1 0 -11.5 0zM1615.75 195.5 a5.75 5.75 0 1 0 11.5 0 a5.75 5.75 0 1 0 -11.5 0zM1408.75 218.5 a5.75 5.75 0 1 0 11.5 0 a5.75 5.75 0 1 0 -11.5 0zM1316.75 195.5 a5.75 5.75 0 1 0 11.5 0 a5.75 5.75 0 1 0 -11.5 0zM1523.75 172.5 a5.75 5.75 0 1 0 11.5 0 a5.75 5.75 0 1 0 -11.5 0z" fill="url(#SvgjsLinearGradient1604)"></path><path d="M1989.5 632.5L1966.5 655.5L1943.5 655.5M1943.5 632.5L1920.5 609.5M1920.5 632.5L1897.5 655.5L1874.5 655.5M2012.5 632.5L1989.5 632.5L1966.5 632.5L1943.5 632.5L1920.5 632.5L1897.5 632.5" stroke="url(#SvgjsLinearGradient1604)" stroke-width="3.83"></path><path d="M1891.75 632.5 a5.75 5.75 0 1 0 11.5 0 a5.75 5.75 0 1 0 -11.5 0zM1937.75 655.5 a5.75 5.75 0 1 0 11.5 0 a5.75 5.75 0 1 0 -11.5 0zM1914.75 609.5 a5.75 5.75 0 1 0 11.5 0 a5.75 5.75 0 1 0 -11.5 0zM1868.75 655.5 a5.75 5.75 0 1 0 11.5 0 a5.75 5.75 0 1 0 -11.5 0z" fill="url(#SvgjsLinearGradient1604)"></path><path d="M1506.5 149.5L1483.5 126.5L1460.5 126.5M1690.5 149.5L1667.5 126.5L1644.5 126.5M1920.5 195.5L1897.5 172.5L1874.5 172.5L1851.5 149.5L1828.5 149.5M1552.5 149.5L1529.5 126.5L1506.5 126.5L1483.5 103.5L1460.5 103.5M1736.5 172.5L1713.5 172.5L1690.5 172.5M1713.5 149.5L1690.5 126.5L1667.5 103.5L1644.5 103.5L1621.5 103.5M2012.5 218.5L1989.5 218.5L1966.5 195.5L1943.5 195.5L1920.5 195.5L1897.5 195.5L1874.5 195.5L1851.5 172.5L1828.5 172.5L1805.5 172.5L1782.5 172.5L1759.5 172.5L1736.5 172.5L1713.5 149.5L1690.5 149.5L1667.5 149.5L1644.5 149.5L1621.5 149.5L1598.5 149.5L1575.5 149.5L1552.5 149.5L1529.5 149.5L1506.5 149.5L1483.5 149.5L1460.5 149.5L1437.5 149.5" stroke="url(#SvgjsLinearGradient1604)" stroke-width="3.83"></path><path d="M1431.75 149.5 a5.75 5.75 0 1 0 11.5 0 a5.75 5.75 0 1 0 -11.5 0zM1454.75 126.5 a5.75 5.75 0 1 0 11.5 0 a5.75 5.75 0 1 0 -11.5 0zM1638.75 126.5 a5.75 5.75 0 1 0 11.5 0 a5.75 5.75 0 1 0 -11.5 0zM1822.75 149.5 a5.75 5.75 0 1 0 11.5 0 a5.75 5.75 0 1 0 -11.5 0zM1454.75 103.5 a5.75 5.75 0 1 0 11.5 0 a5.75 5.75 0 1 0 -11.5 0zM1684.75 172.5 a5.75 5.75 0 1 0 11.5 0 a5.75 5.75 0 1 0 -11.5 0zM1615.75 103.5 a5.75 5.75 0 1 0 11.5 0 a5.75 5.75 0 1 0 -11.5 0z" fill="url(#SvgjsLinearGradient1604)"></path></g></g><defs><mask id="SvgjsMask1603"><rect width="2000" height="860" fill="#ffffff"></rect></mask><linearGradient x1="2000" y1="430" x2="1280" y2="430" gradientUnits="userSpaceOnUse" id="SvgjsLinearGradient1604"><stop stop-color="rgba(0, 171, 253, 1)" offset="0"></stop><stop stop-color="rgba(181, 157, 180, 1)" offset="1"></stop></linearGradient><mask id="SvgjsMask1605"><rect width="2000" height="860" fill="white"></rect><path d="M1342.62 425.5 a2.88 2.88 0 1 0 5.76 0 a2.88 2.88 0 1 0 -5.76 0zM1342.62 448.5 a2.88 2.88 0 1 0 5.76 0 a2.88 2.88 0 1 0 -5.76 0zM1526.62 471.5 a2.88 2.88 0 1 0 5.76 0 a2.88 2.88 0 1 0 -5.76 0zM1687.62 448.5 a2.88 2.88 0 1 0 5.76 0 a2.88 2.88 0 1 0 -5.76 0zM1664.62 402.5 a2.88 2.88 0 1 0 5.76 0 a2.88 2.88 0 1 0 -5.76 0zM1457.62 402.5 a2.88 2.88 0 1 0 5.76 0 a2.88 2.88 0 1 0 -5.76 0zM1733.62 448.5 a2.88 2.88 0 1 0 5.76 0 a2.88 2.88 0 1 0 -5.76 0zM1503.62 402.5 a2.88 2.88 0 1 0 5.76 0 a2.88 2.88 0 1 0 -5.76 0z" fill="black"></path><path d="M1618.62 471.5 a2.88 2.88 0 1 0 5.76 0 a2.88 2.88 0 1 0 -5.76 0zM1618.62 494.5 a2.88 2.88 0 1 0 5.76 0 a2.88 2.88 0 1 0 -5.76 0zM1802.62 471.5 a2.88 2.88 0 1 0 5.76 0 a2.88 2.88 0 1 0 -5.76 0zM1756.62 448.5 a2.88 2.88 0 1 0 5.76 0 a2.88 2.88 0 1 0 -5.76 0z" fill="black"></path><path d="M1434.62 379.5 a2.88 2.88 0 1 0 5.76 0 a2.88 2.88 0 1 0 -5.76 0zM1549.62 356.5 a2.88 2.88 0 1 0 5.76 0 a2.88 2.88 0 1 0 -5.76 0zM1434.62 356.5 a2.88 2.88 0 1 0 5.76 0 a2.88 2.88 0 1 0 -5.76 0zM1503.62 333.5 a2.88 2.88 0 1 0 5.76 0 a2.88 2.88 0 1 0 -5.76 0zM1825.62 379.5 a2.88 2.88 0 1 0 5.76 0 a2.88 2.88 0 1 0 -5.76 0zM1618.62 379.5 a2.88 2.88 0 1 0 5.76 0 a2.88 2.88 0 1 0 -5.76 0zM1618.62 402.5 a2.88 2.88 0 1 0 5.76 0 a2.88 2.88 0 1 0 -5.76 0z" fill="black"></path><path d="M1365.62 517.5 a2.88 2.88 0 1 0 5.76 0 a2.88 2.88 0 1 0 -5.76 0zM1457.62 494.5 a2.88 2.88 0 1 0 5.76 0 a2.88 2.88 0 1 0 -5.76 0zM1595.62 540.5 a2.88 2.88 0 1 0 5.76 0 a2.88 2.88 0 1 0 -5.76 0zM1710.62 540.5 a2.88 2.88 0 1 0 5.76 0 a2.88 2.88 0 1 0 -5.76 0zM1526.62 494.5 a2.88 2.88 0 1 0 5.76 0 a2.88 2.88 0 1 0 -5.76 0zM1411.62 540.5 a2.88 2.88 0 1 0 5.76 0 a2.88 2.88 0 1 0 -5.76 0zM1848.62 494.5 a2.88 2.88 0 1 0 5.76 0 a2.88 2.88 0 1 0 -5.76 0zM1549.62 494.5 a2.88 2.88 0 1 0 5.76 0 a2.88 2.88 0 1 0 -5.76 0z" fill="black"></path><path d="M1963.62 379.5 a2.88 2.88 0 1 0 5.76 0 a2.88 2.88 0 1 0 -5.76 0z" fill="black"></path><path d="M1848.62 517.5 a2.88 2.88 0 1 0 5.76 0 a2.88 2.88 0 1 0 -5.76 0zM1917.62 517.5 a2.88 2.88 0 1 0 5.76 0 a2.88 2.88 0 1 0 -5.76 0zM1871.62 494.5 a2.88 2.88 0 1 0 5.76 0 a2.88 2.88 0 1 0 -5.76 0zM1963.62 517.5 a2.88 2.88 0 1 0 5.76 0 a2.88 2.88 0 1 0 -5.76 0z" fill="black"></path><path d="M1733.62 379.5 a2.88 2.88 0 1 0 5.76 0 a2.88 2.88 0 1 0 -5.76 0zM1871.62 333.5 a2.88 2.88 0 1 0 5.76 0 a2.88 2.88 0 1 0 -5.76 0zM1710.62 356.5 a2.88 2.88 0 1 0 5.76 0 a2.88 2.88 0 1 0 -5.76 0zM1894.62 379.5 a2.88 2.88 0 1 0 5.76 0 a2.88 2.88 0 1 0 -5.76 0z" fill="black"></path><path d="M1940.62 333.5 a2.88 2.88 0 1 0 5.76 0 a2.88 2.88 0 1 0 -5.76 0z" fill="black"></path><path d="M1848.62 540.5 a2.88 2.88 0 1 0 5.76 0 a2.88 2.88 0 1 0 -5.76 0z" fill="black"></path><path d="M1388.62 287.5 a2.88 2.88 0 1 0 5.76 0 a2.88 2.88 0 1 0 -5.76 0zM1342.62 264.5 a2.88 2.88 0 1 0 5.76 0 a2.88 2.88 0 1 0 -5.76 0zM1917.62 287.5 a2.88 2.88 0 1 0 5.76 0 a2.88 2.88 0 1 0 -5.76 0zM1480.62 310.5 a2.88 2.88 0 1 0 5.76 0 a2.88 2.88 0 1 0 -5.76 0zM1618.62 310.5 a2.88 2.88 0 1 0 5.76 0 a2.88 2.88 0 1 0 -5.76 0zM1595.62 264.5 a2.88 2.88 0 1 0 5.76 0 a2.88 2.88 0 1 0 -5.76 0zM1664.62 264.5 a2.88 2.88 0 1 0 5.76 0 a2.88 2.88 0 1 0 -5.76 0zM1664.62 333.5 a2.88 2.88 0 1 0 5.76 0 a2.88 2.88 0 1 0 -5.76 0z" fill="black"></path><path d="M1503.62 563.5 a2.88 2.88 0 1 0 5.76 0 a2.88 2.88 0 1 0 -5.76 0zM1733.62 586.5 a2.88 2.88 0 1 0 5.76 0 a2.88 2.88 0 1 0 -5.76 0zM1664.62 609.5 a2.88 2.88 0 1 0 5.76 0 a2.88 2.88 0 1 0 -5.76 0zM1802.62 586.5 a2.88 2.88 0 1 0 5.76 0 a2.88 2.88 0 1 0 -5.76 0zM1687.62 586.5 a2.88 2.88 0 1 0 5.76 0 a2.88 2.88 0 1 0 -5.76 0zM1802.62 609.5 a2.88 2.88 0 1 0 5.76 0 a2.88 2.88 0 1 0 -5.76 0z" fill="black"></path><path d="M1572.62 218.5 a2.88 2.88 0 1 0 5.76 0 a2.88 2.88 0 1 0 -5.76 0zM1618.62 241.5 a2.88 2.88 0 1 0 5.76 0 a2.88 2.88 0 1 0 -5.76 0zM1756.62 241.5 a2.88 2.88 0 1 0 5.76 0 a2.88 2.88 0 1 0 -5.76 0zM1825.62 241.5 a2.88 2.88 0 1 0 5.76 0 a2.88 2.88 0 1 0 -5.76 0zM1526.62 218.5 a2.88 2.88 0 1 0 5.76 0 a2.88 2.88 0 1 0 -5.76 0zM1871.62 264.5 a2.88 2.88 0 1 0 5.76 0 a2.88 2.88 0 1 0 -5.76 0z" fill="black"></path><path d="M1986.62 609.5 a2.88 2.88 0 1 0 5.76 0 a2.88 2.88 0 1 0 -5.76 0z" fill="black"></path><path d="M1342.62 172.5 a2.88 2.88 0 1 0 5.76 0 a2.88 2.88 0 1 0 -5.76 0zM1664.62 172.5 a2.88 2.88 0 1 0 5.76 0 a2.88 2.88 0 1 0 -5.76 0zM1319.62 149.5 a2.88 2.88 0 1 0 5.76 0 a2.88 2.88 0 1 0 -5.76 0zM1388.62 149.5 a2.88 2.88 0 1 0 5.76 0 a2.88 2.88 0 1 0 -5.76 0zM1618.62 195.5 a2.88 2.88 0 1 0 5.76 0 a2.88 2.88 0 1 0 -5.76 0zM1411.62 218.5 a2.88 2.88 0 1 0 5.76 0 a2.88 2.88 0 1 0 -5.76 0zM1319.62 195.5 a2.88 2.88 0 1 0 5.76 0 a2.88 2.88 0 1 0 -5.76 0zM1526.62 172.5 a2.88 2.88 0 1 0 5.76 0 a2.88 2.88 0 1 0 -5.76 0z" fill="black"></path><path d="M1894.62 632.5 a2.88 2.88 0 1 0 5.76 0 a2.88 2.88 0 1 0 -5.76 0zM1940.62 655.5 a2.88 2.88 0 1 0 5.76 0 a2.88 2.88 0 1 0 -5.76 0zM1917.62 609.5 a2.88 2.88 0 1 0 5.76 0 a2.88 2.88 0 1 0 -5.76 0zM1871.62 655.5 a2.88 2.88 0 1 0 5.76 0 a2.88 2.88 0 1 0 -5.76 0z" fill="black"></path><path d="M1434.62 149.5 a2.88 2.88 0 1 0 5.76 0 a2.88 2.88 0 1 0 -5.76 0zM1457.62 126.5 a2.88 2.88 0 1 0 5.76 0 a2.88 2.88 0 1 0 -5.76 0zM1641.62 126.5 a2.88 2.88 0 1 0 5.76 0 a2.88 2.88 0 1 0 -5.76 0zM1825.62 149.5 a2.88 2.88 0 1 0 5.76 0 a2.88 2.88 0 1 0 -5.76 0zM1457.62 103.5 a2.88 2.88 0 1 0 5.76 0 a2.88 2.88 0 1 0 -5.76 0zM1687.62 172.5 a2.88 2.88 0 1 0 5.76 0 a2.88 2.88 0 1 0 -5.76 0zM1618.62 103.5 a2.88 2.88 0 1 0 5.76 0 a2.88 2.88 0 1 0 -5.76 0z" fill="black"></path></mask></defs></svg>